<svg id="SvgjsSvg1001" width="288" height="288" xmlns="http://www.w3.org/2000/svg" version="1.1" xmlns:xlink="http://www.w3.org/1999/xlink" xmlns:svgjs="http://svgjs.com/svgjs"><defs id="SvgjsDefs1002"></defs><g id="SvgjsG1008" transform="matrix(0.9167,0,0,0.9167,11.995198728942881,11.995201211476342)"><svg xmlns="http://www.w3.org/2000/svg" data-name="Layer 1" viewBox="0 0 128 128" width="288" height="288"><polygon fill="#6c63ff" points="68.49 52.7 59.05 52.7 56.5 49.42 56.5 23.7 70.88 23.7 70.88 49.42 68.49 52.7" class="color8a4182 svgShape"></polygon><polygon fill="#6c63ff" points="55.72 55.1 52.8 64.08 48.9 65.49 24.43 57.54 28.88 43.87 53.34 51.81 55.72 55.1" class="color8a4182 svgShape"></polygon><polygon fill="#6c63ff" points="54.04 67.74 61.68 73.29 61.81 77.43 46.7 98.25 35.06 89.8 50.19 68.98 54.04 67.74" class="color8a4182 svgShape"></polygon><polygon fill="#6c63ff" points="65.76 73.33 73.41 67.78 77.39 68.94 92.51 89.75 80.88 98.2 65.76 77.39 65.76 73.33" class="color8a4182 svgShape"></polygon><polygon fill="#6c63ff" points="74.84 64.23 71.92 55.24 74.25 51.81 98.71 43.87 103.16 57.54 78.69 65.49 74.84 64.23" class="color8a4182 svgShape"></polygon><path fill="#6c63ff" d="M64,1.41A62.59,62.59,0,1,0,126.59,64,62.59,62.59,0,0,0,64,1.41Zm-.34,111.5a49.5,49.5,0,1,1,49.5-49.5A49.5,49.5,0,0,1,63.66,112.92Z" class="color8a4182 svgShape"></path><rect width="3.92" height="19.51" x="61.58" y="82.99" fill="#6c63ff" class="color8a4182 svgShape"></rect><rect width="3.92" height="19.51" x="90.77" y="62.35" fill="#6c63ff" transform="rotate(-72 92.722 72.109)" class="color8a4182 svgShape"></rect><rect width="3.92" height="19.51" x="79.95" y="28.25" fill="#6c63ff" transform="rotate(-144 81.908 38.013)" class="color8a4182 svgShape"></rect><rect width="3.92" height="19.51" x="44.07" y="28.25" fill="#6c63ff" transform="rotate(144 46.029 38.012)" class="color8a4182 svgShape"></rect><rect width="3.92" height="19.51" x="32.76" y="62.35" fill="#6c63ff" transform="rotate(72 34.723 72.106)" class="color8a4182 svgShape"></rect></svg></g></svg>