<svg id="SvgjsSvg1001" width="288" height="288" xmlns="http://www.w3.org/2000/svg" version="1.1" xmlns:xlink="http://www.w3.org/1999/xlink" xmlns:svgjs="http://svgjs.com/svgjs"><defs id="SvgjsDefs1002"></defs><g id="SvgjsG1008" transform="matrix(0.9167,0,0,0.9167,11.9951993247509,11.995199165868769)"><svg xmlns="http://www.w3.org/2000/svg" enable-background="new 0 0 66 66" viewBox="0 0 66 66" width="288" height="288"><path d="M64.2,30.9c0-2.1-1.7-3.9-3.9-3.9H48.8V4.3c0-1.8-1.5-3.3-3.3-3.3H5.2C3.3,1,1.8,2.5,1.8,4.3v30.2c0,1.8,1.5,3.3,3.3,3.3
		h13.7v6.4h-5.6c-0.6,0-1,0.4-1,1s0.4,1,1,1h12.9V51c0,2.1,1.7,3.9,3.9,3.9h10.4v6.6c0,1.9,1.6,3.5,3.5,3.5h9.5
		c1.9,0,3.5-1.6,3.5-3.5v-6.6h3.4c2.1,0,3.9-1.7,3.9-3.9V30.9z M3.8,34.5V4.3C3.8,3.6,4.4,3,5.2,3h40.4c0.7,0,1.3,0.6,1.3,1.3v22.8
		H44V6.5c0-0.6-0.4-1-1-1H7.7c-0.6,0-1,0.4-1,1v25.8c0,0.6,0.4,1,1,1h18.4v2.5c-6,0-17.4,0-20.9,0C4.4,35.8,3.8,35.2,3.8,34.5z
		 M42,27.1H30c-2.1,0-3.9,1.7-3.9,3.9v0v0.3H8.7V7.5H42V27.1z M20.9,44.2v-6.4h5.2v6.4H20.9z M54.9,44.5H42.4v-0.3
		c0-0.8,0.7-1.5,1.5-1.5h9.5c0.8,0,1.5,0.7,1.5,1.5V44.5z M42.4,46.5h12.5c0,0.4,0,12.4,0,12.3H42.4C42.4,58.6,42.4,45.9,42.4,46.5z
		 M56.9,44.2c0-1.9-1.6-3.5-3.5-3.5h-9.5c-1.9,0-3.5,1.6-3.5,3.5v4.6h-8.5V33.2h26.4v15.6h-1.5V44.2z M53.4,63h-9.5
		c-0.8,0-1.5-0.7-1.5-1.5v-0.7h12.5v0.7C54.9,62.3,54.2,63,53.4,63z M62.2,51c0,1-0.8,1.9-1.9,1.9h-3.4v-2.1h2.5c0.6,0,1-0.4,1-1
		V32.2c0-0.6-0.4-1-1-1H30.9c-0.6,0-1,0.4-1,1v17.6c0,0.6,0.4,1,1,1h9.5v2.1H30c-1,0-1.9-0.8-1.9-1.9c0-0.7,0-21.4,0-20.1
		c0-1,0.8-1.9,1.9-1.9c36.1,0-5.9,0,30.3,0c1,0,1.9,0.8,1.9,1.9V51z" fill="#6c63ff" class="color000 svgShape"></path></svg></g></svg>